PathFileType  4	(X/Y/Z) C:\Users\antoi\Documents\MyRepositories\mobilecap\ResultsAnalysis
DataRate	CameraRate	NumFrames	NumMarkers	Units	OrigDataRate	OrigDataStartFrame	OrigNumFrames
100.0	100.0	4	51	mm	100.0	126	250
Frame#	Time	r_knee			r_shank_antsup			r_ankle			r_calc			r_5meta			r_toe			L_knee			L_shank_antsup			L_ankle			L_calc			L_5meta			L_toe			r_sh2			r_sh3			r_sh4			L_sh2			L_sh3			r_thigh1			r_thigh2			r_thigh3			r_thigh4			r_thigh5			L_thigh1			L_thigh2			L_thigh3			L_thigh4			r.ASIS			r.PSIS			L.ASIS			L.PSIS			C7			R_Shoulder			L_Shoulder			R_Sternum			L_Sternum			R_humerus			R_elbow_med			R_elbow_lat			R_forearm			R_wrist_radius			R_wrist_ulna			L_humerus			L_elbow_med			L_elbow_lat			L_forearm			L_wrist_radius			L_wrist_ulna			R_HJC			L_HJC			R_HJC_reg			L_HJC_reg			
		X1	Y1	Z1	X2	Y2	Z2	X3	Y3	Z3	X4	Y4	Z4	X5	Y5	Z5	X6	Y6	Z6	X7	Y7	Z7	X8	Y8	Z8	X9	Y9	Z9	X10	Y10	Z10	X11	Y11	Z11	X12	Y12	Z12	X13	Y13	Z13	X14	Y14	Z14	X15	Y15	Z15	X16	Y16	Z16	X17	Y17	Z17	X18	Y18	Z18	X19	Y19	Z19	X20	Y20	Z20	X21	Y21	Z21	X22	Y22	Z22	X23	Y23	Z23	X24	Y24	Z24	X25	Y25	Z25	X26	Y26	Z26	X27	Y27	Z27	X28	Y28	Z28	X29	Y29	Z29	X30	Y30	Z30	X31	Y31	Z31	X32	Y32	Z32	X33	Y33	Z33	X34	Y34	Z34	X35	Y35	Z35	X36	Y36	Z36	X37	Y37	Z37	X38	Y38	Z38	X39	Y39	Z39	X40	Y40	Z40	X41	Y41	Z41	X42	Y42	Z42	X43	Y43	Z43	X44	Y44	Z44	X45	Y45	Z45	X46	Y46	Z46	X47	Y47	Z47	X48	Y48	Z48	X49	Y49	Z49	X50	Y50	Z50	X51	Y51	Z51	

126	1.25000000	-462.39217	818.27652	-427.50953	-407.19611	732.57345	-426.63000	-426.42793	406.31437	-428.87158	-482.81418	400.46135	-488.42048	-333.39840	300.31451	-397.04586	-284.62913	330.54331	-435.91564	-395.59336	880.79802	-769.97532	-355.19394	789.89972	-762.09447	-478.07596	473.32317	-765.31151	-556.22645	455.25207	-709.61773	-400.06772	374.17322	-798.37095	-344.05093	390.35498	-749.29482	-392.46987	619.69733	-423.79192	-474.92881	723.26220	-392.92174	-465.12492	610.11738	-386.27498	-432.86629	819.74491	-797.24230	-461.42280	701.42858	-807.07167	-512.74469	1096.73694	-420.41726	-466.04587	996.60267	-431.29801	-501.72774	950.28801	-394.82853	-611.90624	1045.47646	-397.16784	-556.58885	943.92484	-409.28876	-471.98087	1122.97799	-767.53688	-385.44036	1013.28558	-753.65226	-551.89687	1058.11447	-806.61358	-470.62410	953.37999	-785.91526	-518.90412	1254.42514	-471.02072	-709.25028	1322.15165	-538.26518	-525.26701	1281.30117	-716.08188	-707.88734	1331.17006	-629.14598	-483.21208	1751.25914	-568.97465	-417.21838	1738.39325	-445.00205	-415.11728	1733.80459	-686.79055	-389.62778	1641.72996	-548.46173	-390.14860	1641.25216	-591.78282	-346.36852	1715.48092	-360.64322	-309.96930	1585.99710	-187.65481	-309.01437	1655.22805	-162.31970	-223.79506	1675.92185	-201.04562	-85.00398	1653.00283	-289.21412	-70.29267	1639.40344	-244.10852	-350.94464	1704.54861	-784.47214	-334.65520	1592.28489	-966.88728	-315.83775	1670.28684	-976.42904	-234.48967	1660.81737	-976.53191	-81.59883	1578.20882	-1018.25887	-95.43687	1606.78435	-1060.58445	-609.40193	1181.59629	-498.85634	-612.21590	1202.80897	-687.20677	-603.30037	1195.84173	-512.78901	-600.87145	1211.90820	-674.73862	
127	1.26000000	-449.32274	804.73885	-426.14503	-392.67475	720.17956	-425.20644	-406.30808	393.63329	-426.77602	-462.28563	387.38172	-486.10788	-312.50408	288.19878	-394.77651	-263.78748	318.82749	-433.42131	-383.62467	866.56469	-770.87327	-340.08536	777.52215	-763.47617	-447.60121	455.59204	-768.00999	-524.79715	436.74891	-712.40499	-367.77171	357.68278	-801.48677	-311.82458	374.72968	-752.29301	-375.97448	607.59268	-422.14421	-460.22818	709.81893	-391.56237	-448.88740	596.88144	-384.21312	-419.11549	803.70997	-798.38592	-441.97367	684.04851	-808.54055	-501.16392	1082.69930	-418.50991	-454.33811	982.82633	-429.21828	-490.34612	936.07300	-393.77250	-600.70732	1031.23548	-397.47088	-544.99473	929.61393	-409.24418	-458.90741	1109.03866	-766.97684	-372.88098	998.80928	-753.37506	-538.86100	1044.87198	-806.94837	-458.32085	939.61690	-786.22449	-507.42754	1241.28491	-470.21704	-696.97174	1307.78935	-538.17093	-512.74826	1268.65725	-715.27222	-695.32115	1317.93112	-629.45925	-470.35014	1737.38199	-568.59131	-404.58642	1725.61863	-445.75040	-402.31118	1721.05536	-685.05008	-376.61442	1627.18470	-549.12318	-376.85209	1627.05749	-591.57732	-334.84424	1704.20577	-360.71620	-300.74702	1579.48908	-184.56002	-300.55106	1649.33772	-160.42222	-215.00117	1669.50588	-199.10057	-75.74534	1644.98038	-286.17049	-61.22722	1632.09134	-240.84333	-340.82587	1693.74262	-785.74601	-334.63590	1588.77662	-973.24597	-312.34096	1666.24362	-979.35110	-231.61281	1652.66046	-979.80797	-82.61261	1564.52210	-1023.65649	-95.07238	1594.74159	-1065.53649	-597.22891	1167.99905	-498.82981	-599.15521	1189.77615	-687.12789	-590.80123	1181.22109	-513.14811	-587.87521	1199.19520	-674.90710	
128	1.27000000	-436.10059	790.23572	-424.96668	-378.24420	706.58473	-423.70766	-386.75145	379.82656	-424.54033	-442.28908	373.42174	-483.88976	-292.52717	274.75658	-392.46820	-243.69113	305.54340	-430.95560	-371.51605	851.00324	-771.88204	-325.23057	763.89263	-764.69255	-418.13052	437.46025	-770.68615	-494.43825	418.47825	-714.70423	-337.40702	339.51647	-803.65972	-281.19847	357.48109	-755.05800	-359.79965	594.33634	-420.34418	-445.84075	695.27641	-389.81632	-432.68418	582.58006	-382.29784	-405.42736	786.52439	-799.40493	-422.68677	665.90609	-810.25572	-489.60542	1067.67540	-416.62368	-442.36799	968.11955	-427.35157	-478.54774	921.04245	-392.80807	-589.36798	1015.67976	-398.12678	-533.07383	914.19823	-409.29963	-445.72015	1093.75839	-766.13166	-360.46936	982.97257	-752.96766	-525.68794	1030.49591	-807.37036	-445.98210	924.61793	-786.76688	-495.68352	1227.03835	-469.48731	-684.40562	1292.59186	-538.29129	-499.92077	1254.73741	-714.53747	-682.54525	1303.56696	-629.44703	-457.92641	1722.48842	-568.22313	-392.48911	1711.93830	-446.62238	-389.70573	1707.51555	-683.43875	-363.58140	1611.71680	-549.69400	-364.19941	1611.93096	-590.89462	-323.59835	1692.17687	-361.03362	-291.72300	1572.87325	-181.69537	-292.35457	1643.38586	-158.79450	-206.51904	1662.91670	-197.65469	-66.79894	1636.69263	-283.21100	-52.51571	1624.46220	-237.65240	-331.42314	1682.34675	-787.35202	-334.95154	1585.43632	-978.59161	-309.36189	1662.24063	-981.83243	-229.41834	1644.61324	-982.59780	-84.13335	1551.67778	-1027.61470	-95.48593	1583.09572	-1069.61977	-584.84966	1153.38169	-498.72455	-585.96134	1175.57883	-686.98024	-578.09368	1165.80434	-513.33999	-574.79517	1185.26296	-674.92663	
129	1.28000000	-422.93462	774.57709	-423.89690	-363.93793	691.76469	-422.18250	-367.67687	364.95410	-422.05791	-422.95953	358.68040	-481.71280	-273.35458	259.82801	-390.16713	-224.42192	290.59204	-428.62318	-359.16796	834.16810	-772.67563	-310.51695	748.97441	-765.67702	-389.89995	418.93169	-773.60414	-465.32331	400.24983	-716.96196	-308.81393	319.68806	-804.84747	-252.14339	338.88340	-757.65470	-343.95594	579.81943	-418.22955	-431.73118	679.51586	-388.23881	-416.23593	567.06145	-380.89158	-391.63070	768.32753	-800.36653	-403.61292	647.12405	-812.20207	-478.01393	1051.68515	-414.98300	-430.01769	952.42613	-425.78044	-466.64043	905.01330	-391.95340	-577.90472	998.95562	-398.98669	-520.97385	897.80044	-409.45683	-432.39188	1077.26604	-765.16161	-348.03271	966.00452	-752.43396	-512.27278	1015.03095	-808.01676	-433.39720	908.39208	-787.42785	-483.73215	1211.69399	-468.69425	-671.68304	1276.51021	-538.58735	-486.70644	1239.47688	-713.48180	-669.60831	1288.09129	-629.45859	-445.84644	1706.47507	-567.65504	-380.96457	1697.59465	-447.44446	-377.33368	1693.18582	-681.94233	-351.19222	1595.51569	-549.57577	-351.73265	1595.98366	-590.12703	-312.68684	1679.99302	-360.95643	-283.29168	1566.06422	-178.58793	-284.47867	1637.27505	-157.44732	-198.45934	1655.92990	-196.50626	-58.30889	1627.90400	-280.46633	-44.26833	1616.23164	-234.66661	-322.59308	1670.09593	-788.53594	-335.80776	1582.24318	-983.23492	-306.96401	1658.11952	-983.67953	-227.74421	1636.72727	-985.07110	-86.15995	1539.81858	-1030.81770	-96.79498	1571.69096	-1072.77397	-572.41463	1137.75429	-498.43553	-572.52171	1160.15652	-686.66881	-565.20745	1149.58118	-513.25626	-561.52661	1170.13208	-674.51898	
